<?xml version="1.0" standalone="no"?>
<!DOCTYPE svg PUBLIC "-//W3C//DTD SVG 20010904//EN"
 "http://www.w3.org/TR/2001/REC-SVG-20010904/DTD/svg10.dtd">
<svg version="1.0" xmlns="http://www.w3.org/2000/svg"
 width="389.000000pt" height="389.000000pt" viewBox="0 0 389.000000 389.000000"
 preserveAspectRatio="xMidYMid meet">
<metadata>
Created by potrace 1.14, written by Peter Selinger 2001-2017
</metadata>
<g transform="translate(0.000000,389.000000) scale(0.100000,-0.100000)"
fill="#000000" stroke="none">
<path d="M1860 3882 c-19 -1 -73 -10 -120 -18 -217 -40 -399 -132 -546 -278
-63 -63 -164 -186 -164 -200 0 -3 -13 -27 -28 -53 -62 -106 -137 -318 -156
-443 -3 -19 -8 -45 -10 -58 -15 -72 -19 -210 -18 -705 0 -402 3 -552 11 -560
7 -7 40 -12 74 -13 100 -3 665 -20 770 -23 16 -1 18 -7 13 -46 -9 -64 -15 -75
-45 -80 -148 -29 -472 -142 -630 -220 -188 -93 -238 -143 -312 -316 -33 -75
-101 -281 -114 -343 -2 -12 -17 -82 -34 -156 -17 -74 -33 -151 -36 -170 -26
-149 -31 -181 -26 -188 3 -4 661 -8 1461 -7 1447 0 1455 0 1455 20 1 11 -2 38
-6 60 -4 22 -10 63 -13 90 -4 28 -9 57 -11 65 -2 8 -6 31 -9 50 -21 140 -86
394 -133 519 -88 233 -169 327 -358 416 -191 90 -484 176 -598 176 -53 0 -62
10 -69 80 l-3 34 115 -2 c163 -2 657 -15 708 -17 41 -2 42 -2 43 28 4 182 0
1128 -5 1181 -37 386 -159 684 -365 892 -158 160 -323 248 -511 273 -82 12
-259 18 -330 12z"/>
</g>
</svg>
